HIERARCHY
ROOT Hips
{
	OFFSET -0.001795 -0.223333 0.028219
	CHANNELS 6 Xposition Yposition Zposition Zrotation Yrotation Xrotation 
	JOINT LeftUpLeg
	{
		OFFSET 0.069520 -0.091406 -0.006815
		CHANNELS 3 Zrotation Yrotation Xrotation
		JOINT LeftLeg
		{
			OFFSET 0.034277 -0.375199 -0.004496
			CHANNELS 3 Zrotation Yrotation Xrotation
			JOINT LeftFoot
			{
				OFFSET -0.013596 -0.397961 -0.043693
				CHANNELS 3 Zrotation Yrotation Xrotation
				JOINT LeftToe
				{
					OFFSET 0.026358 -0.055791 0.119288
					CHANNELS 3 Zrotation Yrotation Xrotation
					End Site
					{
						OFFSET 0.000000 0.000000 0.000000
					}
				}
			}
		}
	}
	JOINT RightUpLeg
	{
		OFFSET -0.067670 -0.090522 -0.004320
		CHANNELS 3 Zrotation Yrotation Xrotation
		JOINT RightLeg
		{
			OFFSET -0.038290 -0.382569 -0.008850
			CHANNELS 3 Zrotation Yrotation Xrotation
			JOINT RightFoot
			{
				OFFSET 0.015774 -0.398415 -0.042312
				CHANNELS 3 Zrotation Yrotation Xrotation
				JOINT RightToe
				{
					OFFSET -0.025372 -0.048144 0.123348
					CHANNELS 3 Zrotation Yrotation Xrotation
					End Site
					{
						OFFSET 0.000000 0.000000 0.000000
					}
				}
			}
		}
	}
	JOINT Spine
	{
		OFFSET -0.002533 0.108963 -0.026696
		CHANNELS 3 Zrotation Yrotation Xrotation
		JOINT Spine1
		{
			OFFSET 0.005487 0.135180 0.001092
			CHANNELS 3 Zrotation Yrotation Xrotation
			JOINT Spine2
			{
				OFFSET 0.001457 0.052922 0.025425
				CHANNELS 3 Zrotation Yrotation Xrotation
				JOINT Neck
				{
					OFFSET -0.002778 0.213870 -0.042857
					CHANNELS 3 Zrotation Yrotation Xrotation
					JOINT Head
					{
						OFFSET 0.005152 0.064970 0.051349
						CHANNELS 3 Zrotation Yrotation Xrotation
						End Site
						{
							OFFSET 0.000000 0.000000 0.000000
						}
					}
				}
				JOINT LeftShoulder
				{
					OFFSET 0.078845 0.121749 -0.034090
					CHANNELS 3 Zrotation Yrotation Xrotation
					JOINT LeftArm
					{
						OFFSET 0.090977 0.030469 -0.008868
						CHANNELS 3 Zrotation Yrotation Xrotation
						JOINT LeftForeArm
						{
							OFFSET 0.259612 -0.012772 -0.027456
							CHANNELS 3 Zrotation Yrotation Xrotation
							JOINT LeftHand
							{
								OFFSET 0.249234 0.008986 -0.001171
								CHANNELS 3 Zrotation Yrotation Xrotation
								End Site
								{
									OFFSET 0.000000 0.000000 0.000000
								}
							}
						}
					}
				}
				JOINT RightShoulder
				{
					OFFSET -0.081759 0.118833 -0.038615
					CHANNELS 3 Zrotation Yrotation Xrotation
					JOINT RightArm
					{
						OFFSET -0.096012 0.032551 -0.009143
						CHANNELS 3 Zrotation Yrotation Xrotation
						JOINT RightForeArm
						{
							OFFSET -0.253742 -0.013329 -0.021401
							CHANNELS 3 Zrotation Yrotation Xrotation
							JOINT RightHand
							{
								OFFSET -0.255298 0.007772 -0.005559
								CHANNELS 3 Zrotation Yrotation Xrotation
								End Site
								{
									OFFSET 0.000000 0.000000 0.000000
								}
							}
						}
					}
				}
			}
		}
	}
}
MOTION
Frames: 9
Frame Time: 0.050000
0.000000 0.948523 0.000000 -0.808991 -1.991646 0.536280 -2.812892 0.430645 3.385239 1.850199 -0.062021 -2.924074 -2.925967 -4.450564 3.381575 0.000000 0.000000 0.000000 2.959217 0.108871 -1.522697 -2.188410 0.401417 2.934066 4.282401 8.490232 3.338246 0.000000 0.000000 0.000000 5.256363 -0.190986 1.627796 -1.235198 0.597486 -0.646235 -2.606564 3.639418 7.647292 6.903983 -2.592827 -17.435224 0.000000 0.000000 0.000000 -21.002329 -8.010347 1.623499 -50.558859 -5.053943 -3.985263 -6.458996 -24.697688 2.233911 0.000000 0.000000 0.000000 20.364450 0.552157 -0.672545 55.651200 4.255217 -3.913898 1.998856 26.279555 1.548341 0.000000 0.000000 0.000000 
-0.001259 0.947150 0.001511 -1.287484 -2.087056 0.957256 -1.469217 0.425754 3.840870 0.911898 0.099902 -4.799187 -3.007040 -4.761647 3.112829 0.000000 0.000000 0.000000 3.479775 0.216462 -2.435442 -2.086950 0.436388 3.736753 4.228429 8.842113 2.693937 0.000000 0.000000 0.000000 5.897827 -0.191404 1.379336 -1.114758 0.534388 0.017027 -3.553101 4.204382 7.164349 7.874859 -2.902026 -18.538046 0.000000 0.000000 0.000000 -20.392114 -8.553452 1.719895 -51.150428 -5.355461 -3.811997 -5.177433 -24.759464 1.919531 0.000000 0.000000 0.000000 20.706379 -0.079103 -0.861891 56.561862 3.443818 -4.317916 1.380238 27.329314 1.531772 0.000000 0.000000 0.000000 
-0.002798 0.946663 0.003223 -0.937471 -2.321339 1.207509 -1.701131 0.387560 3.381377 0.959972 0.053113 -3.808699 -3.065473 -5.347498 2.276710 0.000000 0.000000 0.000000 3.497352 0.253189 -2.749547 -2.274475 0.490820 4.208003 3.854624 8.839044 1.468410 0.000000 0.000000 0.000000 5.997132 -0.203683 1.438236 -1.406809 0.682497 -1.749437 -3.573032 4.147305 8.894182 6.890400 -2.262366 -19.363163 0.000000 0.000000 0.000000 -19.668860 -8.567038 1.919124 -51.504829 -6.267413 -3.659428 -5.155423 -23.485398 1.849540 0.000000 0.000000 0.000000 21.269110 -0.145702 -0.949043 55.931030 3.271372 -4.528917 1.363375 27.424495 1.541897 0.000000 0.000000 0.000000 
-0.004878 0.946767 0.005816 -1.045379 -2.319084 1.449208 -1.287536 0.422141 3.864498 0.597227 0.117393 -4.684827 -3.253729 -5.519617 2.671537 0.000000 0.000000 0.000000 3.849750 0.329872 -3.351985 -1.882702 0.462441 4.652556 3.898418 9.303662 1.025788 0.000000 0.000000 0.000000 6.024283 -0.191356 1.243687 -1.185241 0.575881 -1.154630 -3.647369 4.261969 8.578266 7.320611 -2.464906 -19.507832 0.000000 0.000000 0.000000 -19.715322 -8.970428 2.077261 -51.445251 -6.190802 -3.634085 -4.290060 -23.853944 1.687987 0.000000 0.000000 0.000000 21.410779 -0.296182 -1.008304 55.779469 2.957295 -4.637868 0.846687 27.894736 1.464578 0.000000 0.000000 0.000000 
-0.007393 0.946870 0.009269 -0.997678 -2.112907 1.569413 -1.582604 0.442354 3.922228 0.774121 0.104975 -4.686232 -2.596995 -4.279430 2.444476 0.000000 0.000000 0.000000 3.958516 0.366909 -3.624339 -1.839180 0.476472 4.997260 3.373319 8.481662 0.349599 0.000000 0.000000 0.000000 6.142631 -0.194235 1.214891 -1.050696 0.514208 -1.209806 -3.878610 3.898315 8.501721 7.348689 -2.563042 -19.133552 0.000000 0.000000 0.000000 -19.560885 -9.276445 2.310204 -51.409246 -6.382844 -3.556923 -3.999425 -23.705177 1.626847 0.000000 0.000000 0.000000 20.940436 -0.588702 -1.219459 56.053891 2.546899 -4.802725 1.267876 28.010676 1.553082 0.000000 0.000000 0.000000 
-0.010454 0.946412 0.014119 -1.113882 -2.188866 1.627326 -1.617100 0.484448 4.289772 1.037528 0.091083 -4.798315 -2.138487 -3.724936 1.687314 0.000000 0.000000 0.000000 4.216328 0.393592 -3.821425 -1.878322 0.505088 5.378677 3.299513 8.614342 -0.064063 0.000000 0.000000 0.000000 6.261509 -0.213081 1.371520 -1.051049 0.514988 -1.311636 -3.675119 3.740915 8.556062 7.377979 -2.602731 -19.166431 0.000000 0.000000 0.000000 -19.758607 -9.231714 2.345874 -51.245090 -6.469136 -3.521793 -3.361338 -23.918011 1.520026 0.000000 0.000000 0.000000 20.578323 -0.421283 -1.166976 56.352400 2.475022 -4.839357 0.645037 27.991128 1.395639 0.000000 0.000000 0.000000 
-0.014025 0.945767 0.020706 -1.114807 -2.271171 1.699047 -1.576124 0.515242 4.586833 1.161537 0.076880 -4.679698 -1.699777 -2.925265 1.455727 0.000000 0.000000 0.000000 4.451125 0.398250 -3.857762 -2.003726 0.540070 5.641266 3.057519 8.246117 -0.408286 0.000000 0.000000 0.000000 6.388360 -0.229341 1.492877 -1.079849 0.526430 -1.153915 -3.770339 3.474040 8.114011 7.506694 -2.706289 -19.126327 0.000000 0.000000 0.000000 -19.791000 -8.820743 2.186637 -51.082497 -6.163384 -3.618048 -2.964053 -24.465781 1.478987 0.000000 0.000000 0.000000 20.363702 -0.503093 -1.291287 56.516883 2.508451 -4.775579 0.814757 28.076349 1.415469 0.000000 0.000000 0.000000 
-0.018279 0.944673 0.029201 -0.984541 -2.707293 1.876520 -1.540703 0.484996 4.308876 1.222839 -0.000286 -3.105701 -0.916620 -1.890189 0.182926 0.000000 0.000000 0.000000 4.479501 0.341227 -3.489731 -1.963001 0.545495 5.820553 2.825143 8.282257 -1.229508 0.000000 0.000000 0.000000 6.419183 -0.235171 1.515498 -1.327156 0.641035 -1.415512 -3.648310 3.674307 8.034000 7.518137 -2.722624 -19.085912 0.000000 0.000000 0.000000 -19.487630 -8.411243 1.994095 -51.297309 -5.581512 -3.881019 -2.728149 -25.307998 1.480394 0.000000 0.000000 0.000000 20.476803 -0.956640 -1.575468 56.520242 2.310803 -4.854926 0.849833 28.664384 1.457979 0.000000 0.000000 0.000000 
-0.023167 0.943996 0.039418 -0.975924 -3.251383 1.722992 -1.555328 0.537918 4.772862 1.829596 -0.103701 -2.128471 -0.654560 -1.628609 -0.462838 0.000000 0.000000 0.000000 4.674566 0.232405 -2.734251 -2.133768 0.566383 5.725760 2.774105 8.515284 -1.676061 0.000000 0.000000 0.000000 6.662132 -0.262531 1.790768 -1.500362 0.719888 -1.705016 -3.519591 3.939063 8.160823 7.523371 -2.718108 -19.198525 0.000000 0.000000 0.000000 -19.772147 -7.710193 1.619772 -50.739562 -5.438655 -3.908782 -2.735940 -25.900931 1.520316 0.000000 0.000000 0.000000 20.357893 -0.813561 -1.495550 56.748027 2.527963 -4.785774 1.047769 28.901199 1.520544 0.000000 0.000000 0.000000 
